<svg width="196" height="30" viewBox="0 0 196 30" fill="none" xmlns="http://www.w3.org/2000/svg">
<path d="M8.224 23.064C6.944 23.064 6.304 22.7227 6.304 22.04V4.792H1.216C0.874667 4.792 0.629333 4.664 0.48 4.408C0.330667 4.152 0.256 3.74667 0.256 3.192V2.2C0.256 1.64533 0.330667 1.24 0.48 0.983999C0.629333 0.727999 0.874667 0.599998 1.216 0.599998H16.352C16.6933 0.599998 16.9387 0.727999 17.088 0.983999C17.2373 1.24 17.312 1.64533 17.312 2.2V3.192C17.312 3.74667 17.2373 4.152 17.088 4.408C16.9387 4.664 16.6933 4.792 16.352 4.792H11.264V22.04C11.264 22.7227 10.624 23.064 9.344 23.064H8.224ZM18.2333 23.064C16.9319 23.064 16.2812 22.8293 16.2812 22.36C16.2812 22.2747 16.3239 22.0827 16.4093 21.784L23.4493 1.208C23.6199 0.759999 24.2279 0.535999 25.2733 0.535999H26.9373C28.0039 0.535999 28.6119 0.759999 28.7613 1.208L35.8013 21.784C35.8653 21.9973 35.8973 22.1893 35.8973 22.36C35.8973 22.8293 35.3639 23.064 34.2973 23.064H32.8893C31.8439 23.064 31.2466 22.84 31.0973 22.392L29.8173 18.488H22.2653L20.9852 22.392C20.8359 22.84 20.3453 23.064 19.5133 23.064H18.2333ZM28.4413 14.264L26.6173 8.568C26.4679 8.14133 26.3079 7.45867 26.1373 6.52H26.0093C25.9879 6.648 25.9346 6.936 25.8493 7.384C25.7853 7.81067 25.6786 8.20533 25.5293 8.568L23.6413 14.264H28.4413ZM44.1302 23.256C42.6156 23.256 41.2929 23.1067 40.1623 22.808C39.0316 22.5093 38.1463 22.1253 37.5063 21.656C36.9089 21.2507 36.6103 20.8453 36.6103 20.44C36.6103 20.12 36.7276 19.736 36.9622 19.288C37.1969 18.84 37.4743 18.4453 37.7943 18.104C38.1143 17.7627 38.3809 17.592 38.5943 17.592C38.7223 17.592 39.0209 17.72 39.4903 17.976C40.1729 18.3173 40.7916 18.584 41.3463 18.776C41.9009 18.968 42.5516 19.064 43.2983 19.064C44.1303 19.064 44.8343 18.904 45.4103 18.584C46.0076 18.2427 46.3063 17.656 46.3063 16.824C46.3063 16.1413 46.0289 15.608 45.4743 15.224C44.9409 14.8187 44.0663 14.3707 42.8503 13.88L41.3783 13.24C40.0343 12.6 38.9783 11.8107 38.2103 10.872C37.4423 9.912 37.0583 8.55733 37.0583 6.808C37.0583 5.35733 37.4103 4.152 38.1143 3.192C38.8396 2.21067 39.7783 1.496 40.9303 1.048C42.0823 0.578666 43.3196 0.344 44.6423 0.344C45.7303 0.344 46.7116 0.461333 47.5863 0.695999C48.4823 0.909332 49.1863 1.19733 49.6983 1.56C50.1676 1.90133 50.4023 2.24267 50.4023 2.584C50.4023 2.88267 50.3063 3.256 50.1143 3.704C49.9223 4.152 49.6876 4.54667 49.4103 4.888C49.1329 5.208 48.8769 5.368 48.6423 5.368C48.5356 5.368 48.3543 5.31467 48.0983 5.208C47.8636 5.10133 47.6609 5.016 47.4903 4.952C46.7223 4.696 45.9223 4.568 45.0903 4.568C43.9809 4.568 43.2023 4.74933 42.7543 5.112C42.3276 5.47467 42.1143 5.89067 42.1143 6.36C42.1143 6.91467 42.2636 7.37333 42.5623 7.736C42.8609 8.09867 43.2236 8.39733 43.6503 8.632C44.0769 8.84533 44.7063 9.13333 45.5383 9.496C46.7543 10.008 47.7463 10.4987 48.5143 10.968C49.2823 11.416 49.9436 12.0773 50.4983 12.952C51.0743 13.8053 51.3623 14.904 51.3623 16.248C51.3623 17.8907 51.0103 19.2347 50.3063 20.28C49.6236 21.3253 48.7383 22.0827 47.6503 22.552C46.5623 23.0213 45.3889 23.256 44.1302 23.256ZM56.0343 23.064C54.7543 23.064 54.1143 22.7227 54.1143 22.04V1.56C54.1143 0.877333 54.7543 0.535999 56.0343 0.535999H57.1543C58.4343 0.535999 59.0743 0.877333 59.0743 1.56V10.136L59.2023 10.168L64.7703 1.144C65.0049 0.738666 65.6449 0.535999 66.6903 0.535999H68.1943C69.3889 0.535999 69.9862 0.695999 69.9862 1.016C69.9862 1.208 69.9009 1.432 69.7303 1.688L63.5543 11.16L70.5623 21.912C70.7329 22.168 70.8183 22.392 70.8183 22.584C70.8183 22.904 70.2209 23.064 69.0263 23.064H67.1703C66.1036 23.064 65.4529 22.8613 65.2183 22.456L59.2023 12.728L59.0743 12.76V22.04C59.0743 22.7227 58.4343 23.064 57.1543 23.064H56.0343Z" fill="#B4ACF9"/>
<path d="M83.3678 17.656C82.8131 17.656 82.3864 17.4533 82.0878 17.048L78.1518 10.008C77.8744 9.53867 77.6398 9.12267 77.4478 8.76L77.3198 8.792V10.36V22.04C77.3198 22.7227 76.6798 23.064 75.3998 23.064H74.4718C73.1918 23.064 72.5518 22.7227 72.5518 22.04V1.56C72.5518 0.877333 73.1918 0.535999 74.4718 0.535999H76.1678C77.1918 0.535999 77.8638 0.823999 78.1838 1.4L83.4958 10.872L83.8158 11.416L84.1038 10.872L89.5118 1.4C89.8318 0.823999 90.5038 0.535999 91.5278 0.535999H93.1918C94.4718 0.535999 95.1118 0.877333 95.1118 1.56V22.04C95.1118 22.7227 94.4718 23.064 93.1918 23.064H92.2638C90.9838 23.064 90.3438 22.7227 90.3438 22.04V10.36V8.792L90.2158 8.76C90.0238 9.12267 89.7891 9.53867 89.5118 10.008L85.5758 17.048C85.2771 17.4533 84.8504 17.656 84.2958 17.656H83.3678ZM103.393 23.256C101.75 23.256 100.545 22.8293 99.7765 21.976C99.0298 21.1227 98.6565 19.992 98.6565 18.584C98.6565 16.8773 99.2752 15.4587 100.513 14.328C101.771 13.1973 104.214 12.632 107.841 12.632V11.576C107.841 10.9573 107.638 10.4987 107.233 10.2C106.849 9.90133 106.219 9.752 105.345 9.752C104.619 9.752 103.979 9.82667 103.425 9.976C102.891 10.1253 102.411 10.296 101.985 10.488C101.558 10.68 101.313 10.776 101.249 10.776C101.035 10.776 100.801 10.616 100.545 10.296C100.289 9.976 100.065 9.61333 99.8725 9.208C99.6805 8.78133 99.5845 8.45067 99.5845 8.216C99.5845 7.85333 99.8512 7.50133 100.385 7.16C100.918 6.81867 101.654 6.54133 102.593 6.328C103.531 6.11467 104.566 6.008 105.697 6.008C108.107 6.008 109.857 6.488 110.945 7.448C112.033 8.38667 112.577 9.688 112.577 11.352V17.368C112.577 18.3493 112.598 19.096 112.641 19.608C112.705 20.12 112.779 20.6853 112.865 21.304C112.929 21.5813 112.961 21.816 112.961 22.008C112.961 22.3493 112.523 22.6053 111.649 22.776C110.795 22.9467 110.038 23.032 109.377 23.032C108.993 23.032 108.726 22.8827 108.577 22.584C108.427 22.264 108.31 21.9227 108.225 21.56C108.161 21.1973 108.118 20.952 108.097 20.824C107.969 21.0587 107.713 21.368 107.329 21.752C106.945 22.1147 106.411 22.456 105.729 22.776C105.046 23.096 104.267 23.256 103.393 23.256ZM104.961 19.512C105.558 19.512 106.123 19.32 106.657 18.936C107.19 18.552 107.585 18.072 107.841 17.496V15.736C104.854 15.736 103.361 16.5253 103.361 18.104C103.361 18.5307 103.499 18.872 103.777 19.128C104.054 19.384 104.449 19.512 104.961 19.512ZM118.654 23.064C117.374 23.064 116.734 22.7227 116.734 22.04V11.896C116.734 10.9573 116.702 10.2427 116.638 9.752C116.595 9.24 116.531 8.67467 116.446 8.056C116.382 7.75733 116.35 7.53333 116.35 7.384C116.35 7.04267 116.777 6.78667 117.63 6.616C118.505 6.44533 119.273 6.36 119.934 6.36C120.318 6.36 120.585 6.50933 120.734 6.808C120.883 7.08533 120.99 7.39467 121.054 7.736C121.139 8.07733 121.193 8.312 121.214 8.44C121.726 7.75733 122.409 7.18133 123.262 6.712C124.115 6.24267 125.022 6.008 125.982 6.008C127.582 6.008 128.766 6.43467 129.534 7.288C130.302 8.12 130.686 9.42133 130.686 11.192V22.04C130.686 22.7227 130.046 23.064 128.766 23.064H127.87C126.59 23.064 125.95 22.7227 125.95 22.04V11.896C125.95 11.2347 125.801 10.744 125.502 10.424C125.203 10.0827 124.713 9.912 124.03 9.912C123.454 9.912 122.942 10.104 122.494 10.488C122.067 10.8507 121.726 11.2773 121.47 11.768V22.04C121.47 22.7227 120.83 23.064 119.55 23.064H118.654ZM138.643 23.256C137 23.256 135.795 22.8293 135.027 21.976C134.28 21.1227 133.907 19.992 133.907 18.584C133.907 16.8773 134.525 15.4587 135.763 14.328C137.021 13.1973 139.464 12.632 143.091 12.632V11.576C143.091 10.9573 142.888 10.4987 142.483 10.2C142.099 9.90133 141.469 9.752 140.595 9.752C139.869 9.752 139.229 9.82667 138.675 9.976C138.141 10.1253 137.661 10.296 137.235 10.488C136.808 10.68 136.563 10.776 136.499 10.776C136.285 10.776 136.051 10.616 135.795 10.296C135.539 9.976 135.315 9.61333 135.123 9.208C134.931 8.78133 134.835 8.45067 134.835 8.216C134.835 7.85333 135.101 7.50133 135.635 7.16C136.168 6.81867 136.904 6.54133 137.843 6.328C138.781 6.11467 139.816 6.008 140.947 6.008C143.357 6.008 145.107 6.488 146.195 7.448C147.283 8.38667 147.827 9.688 147.827 11.352V17.368C147.827 18.3493 147.848 19.096 147.891 19.608C147.955 20.12 148.029 20.6853 148.115 21.304C148.179 21.5813 148.211 21.816 148.211 22.008C148.211 22.3493 147.773 22.6053 146.899 22.776C146.045 22.9467 145.288 23.032 144.627 23.032C144.243 23.032 143.976 22.8827 143.827 22.584C143.677 22.264 143.56 21.9227 143.475 21.56C143.411 21.1973 143.368 20.952 143.347 20.824C143.219 21.0587 142.963 21.368 142.579 21.752C142.195 22.1147 141.661 22.456 140.979 22.776C140.296 23.096 139.517 23.256 138.643 23.256ZM140.211 19.512C140.808 19.512 141.373 19.32 141.907 18.936C142.44 18.552 142.835 18.072 143.091 17.496V15.736C140.104 15.736 138.611 16.5253 138.611 18.104C138.611 18.5307 138.749 18.872 139.027 19.128C139.304 19.384 139.699 19.512 140.211 19.512ZM158.384 29.784C153.307 29.784 150.768 28.312 150.768 25.368C150.768 24.536 151.013 23.8 151.504 23.16C152.016 22.52 152.741 22.0187 153.68 21.656L153.712 21.528C153.264 21.3147 152.923 20.9947 152.688 20.568C152.453 20.1413 152.336 19.6613 152.336 19.128C152.336 17.9547 152.976 16.9947 154.256 16.248C152.528 15.3307 151.664 13.816 151.664 11.704C151.664 9.76267 152.293 8.33333 153.552 7.416C154.832 6.47733 156.496 6.008 158.544 6.008C159.376 6.008 160.197 6.09333 161.008 6.264H166.16C166.501 6.264 166.747 6.392 166.896 6.648C167.045 6.904 167.12 7.30933 167.12 7.864V8.408C167.12 9.41067 166.864 9.912 166.352 9.912C166.139 9.912 165.861 9.88 165.52 9.816C165.2 9.752 164.965 9.688 164.816 9.624L164.752 9.752C164.944 9.96533 165.104 10.264 165.232 10.648C165.36 11.0107 165.424 11.3627 165.424 11.704C165.424 13.5387 164.816 14.904 163.6 15.8C162.405 16.696 160.837 17.144 158.896 17.144C157.957 17.144 157.349 17.2293 157.072 17.4C156.795 17.5493 156.656 17.8053 156.656 18.168C156.656 18.552 156.901 18.8187 157.392 18.968C157.883 19.1173 158.715 19.2773 159.888 19.448C160.272 19.4907 160.869 19.576 161.68 19.704C163.195 20.0027 164.4 20.4933 165.296 21.176C166.192 21.8373 166.64 22.8933 166.64 24.344C166.64 25.432 166.299 26.3813 165.616 27.192C164.933 28.024 163.963 28.664 162.704 29.112C161.467 29.56 160.027 29.784 158.384 29.784ZM158.544 13.72C159.248 13.72 159.824 13.5493 160.272 13.208C160.72 12.8453 160.944 12.3013 160.944 11.576C160.944 10.872 160.72 10.3387 160.272 9.976C159.824 9.61333 159.248 9.432 158.544 9.432C157.84 9.432 157.264 9.61333 156.816 9.976C156.368 10.3387 156.144 10.872 156.144 11.576C156.144 12.3013 156.368 12.8453 156.816 13.208C157.264 13.5493 157.84 13.72 158.544 13.72ZM158.736 26.04C159.824 26.04 160.645 25.9013 161.2 25.624C161.755 25.3467 162.032 24.9627 162.032 24.472C162.032 23.9813 161.669 23.6187 160.944 23.384C160.24 23.1707 158.96 23 157.104 22.872C156.571 23.064 156.144 23.3093 155.824 23.608C155.525 23.928 155.376 24.2587 155.376 24.6C155.376 25.048 155.643 25.4 156.176 25.656C156.731 25.912 157.584 26.04 158.736 26.04ZM176.54 23.256C173.724 23.256 171.622 22.5093 170.236 21.016C168.87 19.5013 168.188 17.4107 168.188 14.744C168.188 11.736 168.87 9.528 170.236 8.12C171.622 6.712 173.532 6.008 175.964 6.008C178.332 6.008 180.07 6.776 181.18 8.312C182.31 9.848 182.876 11.832 182.876 14.264C182.876 14.52 182.652 14.904 182.204 15.416C181.777 15.9067 181.457 16.152 181.244 16.152H173.084C173.19 17.368 173.553 18.232 174.172 18.744C174.79 19.256 175.654 19.512 176.764 19.512C177.361 19.512 177.905 19.448 178.396 19.32C178.886 19.1707 179.398 18.9893 179.932 18.776C180.273 18.6053 180.508 18.52 180.636 18.52C180.849 18.52 181.084 18.68 181.34 19C181.617 19.2987 181.841 19.6507 182.012 20.056C182.204 20.44 182.3 20.7387 182.3 20.952C182.3 21.4427 181.969 21.8693 181.308 22.232C180.646 22.5733 179.857 22.8293 178.94 23C178.022 23.1707 177.222 23.256 176.54 23.256ZM178.268 12.984C178.268 12.0027 178.076 11.224 177.692 10.648C177.308 10.0507 176.732 9.752 175.964 9.752C174.385 9.752 173.425 10.8293 173.084 12.984H178.268ZM187.998 23.064C186.718 23.064 186.078 22.7227 186.078 22.04V11.896C186.078 10.9573 186.046 10.2427 185.982 9.752C185.939 9.24 185.875 8.67467 185.79 8.056C185.726 7.75733 185.694 7.53333 185.694 7.384C185.694 7.04267 186.12 6.78667 186.974 6.616C187.848 6.44533 188.616 6.36 189.278 6.36C189.662 6.36 189.928 6.50933 190.078 6.808C190.227 7.08533 190.334 7.39467 190.398 7.736C190.483 8.07733 190.536 8.312 190.558 8.44C190.963 7.69333 191.432 7.10667 191.966 6.68C192.52 6.232 193.214 6.008 194.046 6.008C194.771 6.008 195.251 6.15733 195.486 6.456C195.742 6.73333 195.87 7.16 195.87 7.736C195.87 8.184 195.774 8.74933 195.582 9.432C195.39 10.0933 195.155 10.424 194.878 10.424C194.75 10.424 194.526 10.3813 194.206 10.296C193.886 10.2107 193.608 10.168 193.374 10.168C192.798 10.168 192.286 10.3387 191.838 10.68C191.411 11 191.07 11.3627 190.814 11.768V22.04C190.814 22.7227 190.174 23.064 188.894 23.064H187.998Z" fill="white" fill-opacity="0.86"/>
</svg>
